<?xml version="1.0" encoding="UTF-8"?>
<svg width="512px" height="512px" viewBox="0 0 512 512" version="1.1" xmlns="http://www.w3.org/2000/svg" xmlns:xlink="http://www.w3.org/1999/xlink">
    <title>logo512</title>
    <g id="logo512" stroke="none" stroke-width="1" fill="none" fill-rule="evenodd">
        <path d="M379.13964,368.868088 L336.992742,410.340713 C328.451924,418.733845 316.926813,423.390149 304.952776,423.285627 L204.135147,422.405882 C192.161134,422.301361 180.71903,417.444591 172.32601,408.903819 L101.6593,336.992743 C93.2662794,328.451971 88.6098163,316.926793 88.7143157,304.952826 L89.594151,204.135234 C89.6986504,192.161267 94.5555111,180.719165 103.09633,172.326033 L175.007279,101.659287 C183.548098,93.266381 195.073209,88.6098508 207.047246,88.7143727 L307.864852,89.5941176 C319.838888,89.6986395 331.280992,94.555635 339.674012,103.096407 L410.340699,175.007257 C418.733742,183.548255 423.390183,195.073207 423.285684,207.047399 L422.405871,307.864992 C422.358035,313.345733 421.314531,318.714953 419.377828,323.731554 L373.314428,323.732231 C376.03403,319.008202 378.498354,314.068808 380.682005,308.924433 C409.911324,240.064359 377.784332,160.547339 308.924384,131.318001 C240.064413,102.088662 160.547337,134.215718 131.318017,203.075793 C102.088698,271.935641 134.215668,351.452661 203.075638,380.681999 C257.872443,403.94185 319.417911,388.347767 357.000384,346.307835 L402.14293,346.29271 L402.098344,346.293161 L430.498758,346.327475 C437.766801,336.23716 442.145345,324.295701 443.08103,311.806574 L443.267793,307.335158 L444.135212,207.941141 C444.278879,191.476795 438.42179,175.578403 427.74746,163.175061 L424.717724,159.881153 L355.048826,88.9854975 C343.508409,77.2420205 328.124903,70.1415287 311.806547,68.9190964 L307.335109,68.7324017 L207.94101,67.8648473 C191.476707,67.7212708 175.578245,73.5783356 163.174923,84.2526641 L159.88106,87.282445 L88.9854857,156.951153 C77.2418716,168.491682 70.1415595,183.87514 68.9189916,200.193426 L68.7322066,204.665067 L67.8648101,304.059085 C67.7211206,320.523431 73.5782314,336.421823 84.2525613,348.825165 L87.2822976,352.119073 L156.951173,423.014502 C168.49159,434.758205 183.875096,441.858471 200.193452,443.081129 L204.664913,443.267824 L304.059012,444.135153 C320.523292,444.278955 336.421777,438.42189 348.825076,427.747562 L352.118939,424.717781 L385.957269,391.443015 L445.464785,391.443015 L369.03237,466.580048 C356.221165,479.169408 338.933487,486.15409 320.972443,486 L187.023463,484.82849 C169.06242,484.67182 151.899265,477.38644 139.309723,464.575169 L45.4200696,369.032434 C32.8305277,356.221163 25.8458443,338.933509 26,320.972446 L27.1715571,187.023439 C27.3282948,169.062376 34.6136085,151.899336 47.4248137,139.309751 L142.967629,45.4201776 C155.778857,32.8305923 173.066535,25.8459099 191.027579,26 L324.976559,27.1717353 C342.937602,27.3284053 360.100757,34.6137858 372.690299,47.4248311 L466.579952,142.967792 C479.169494,155.778837 486.154178,173.066491 486,191.027554 L484.828465,324.976561 C484.686943,341.193034 478.734408,356.759123 468.1504,368.895856 L408.915973,368.868088 L379.13964,368.868088 Z" id="octologo-small" fill="#7D8285" fill-rule="nonzero"></path>
    </g>
</svg>